# xmcd
# 
# Track frame offsets:
#     150
#     12992
#     27576
#     38310
#     70709
#     90538
#     99548
#     121678
#     125938
#     152191
# 
# Disc length: 2404
# 
# Revision: 1
# Processed by: cddbd v1.5.2PL0 Copyright (c) Steve Scherf et al.
# Submitted via: BonkEnc v1.0.8
# 
DISCID=7809620a
DTITLE=Buried Inside - Chronoclast
DYEAR=2005
DGENRE=Death Metal
TTITLE0=Introduction
TTITLE1=Time As Ideology
TTITLE2=Time As Methodology
TTITLE3=Time As Surrogate Religion
TTITLE4=Time As Imperialism
TTITLE5=Reintroduction
TTITLE6=Time As Abjection
TTITLE7=Time As Automation
TTITLE8=Time As Commodity
TTITLE9=Time As Resistance
EXTD=
EXTT0=
EXTT1=
EXTT2=
EXTT3=
EXTT4=
EXTT5=
EXTT6=
EXTT7=
EXTT8=
EXTT9=
PLAYORDER=
